<svg id="Layer_1" data-name="Layer 1" xmlns="http://www.w3.org/2000/svg" viewBox="0 0 253.58 114.1"><defs><style>.cls-1,.cls-2{fill:none;stroke-miterlimit:10;}.cls-1{stroke:#1d1d1b;stroke-width:12.9px;}.cls-2{stroke:#e41f1d;stroke-width:22.34px;}.cls-3{font-size:38.55px;fill:#1d1d1b;font-family:ErasITC-Bold, Eras Bold ITC;font-weight:700;}</style></defs><title>mixvideo</title><path class="cls-1" d="M114,79.19a43.71,43.71,0,1,1,8.49,65.86" transform="translate(-8.47 -55.58)"/><path class="cls-2" d="M156.77,106.65l-67.48-39a6.91,6.91,0,0,0-10.36,6v77.92a6.91,6.91,0,0,0,10.36,6l67.48-39A6.9,6.9,0,0,0,156.77,106.65Z" transform="translate(-8.47 -55.58)"/><path class="cls-1" d="M173,143.19a43.71,43.71,0,1,0-63-10.37" transform="translate(-8.47 -55.58)"/><text class="cls-3" transform="translate(0.17 66.71) scale(0.91 1)">VIDE</text><text class="cls-3" transform="translate(187.4 66.71) scale(0.87 1)">MIX</text></svg>